<mxfile host="app.diagrams.net" modified="2021-07-26T06:34:44.689Z" agent="5.0 (Windows NT 10.0; Win64; x64) AppleWebKit/537.36 (KHTML, like Gecko) Chrome/91.0.4472.164 Safari/537.36" etag="dI1iPz9vKfBiuOVOo180" version="14.9.2" type="github">
  <diagram name="Page-1" id="52a04d89-c75d-2922-d76d-85b35f80e030">
    <mxGraphModel dx="1293" dy="693" grid="1" gridSize="10" guides="1" tooltips="1" connect="1" arrows="1" fold="1" page="1" pageScale="1" pageWidth="1169" pageHeight="827" background="none" math="0" shadow="0">
      <root>
        <mxCell id="0" />
        <mxCell id="1" parent="0" />
        <mxCell id="QDF-2TI6SQJX1vdAJhpz-36" style="edgeStyle=orthogonalEdgeStyle;rounded=0;orthogonalLoop=1;jettySize=auto;html=1;entryX=0;entryY=0.5;entryDx=0;entryDy=0;" edge="1" parent="1" source="QDF-2TI6SQJX1vdAJhpz-1" target="QDF-2TI6SQJX1vdAJhpz-14">
          <mxGeometry relative="1" as="geometry" />
        </mxCell>
        <mxCell id="QDF-2TI6SQJX1vdAJhpz-1" value="打开DIY小程序" style="rounded=0;whiteSpace=wrap;html=1;" vertex="1" parent="1">
          <mxGeometry x="160" y="130" width="90" height="40" as="geometry" />
        </mxCell>
        <mxCell id="QDF-2TI6SQJX1vdAJhpz-9" style="edgeStyle=orthogonalEdgeStyle;rounded=0;orthogonalLoop=1;jettySize=auto;html=1;entryX=0;entryY=0.5;entryDx=0;entryDy=0;" edge="1" parent="1" source="QDF-2TI6SQJX1vdAJhpz-2" target="QDF-2TI6SQJX1vdAJhpz-1">
          <mxGeometry relative="1" as="geometry" />
        </mxCell>
        <mxCell id="QDF-2TI6SQJX1vdAJhpz-11" style="edgeStyle=orthogonalEdgeStyle;rounded=0;orthogonalLoop=1;jettySize=auto;html=1;entryX=0;entryY=0.5;entryDx=0;entryDy=0;" edge="1" parent="1" source="QDF-2TI6SQJX1vdAJhpz-2" target="QDF-2TI6SQJX1vdAJhpz-3">
          <mxGeometry relative="1" as="geometry" />
        </mxCell>
        <mxCell id="QDF-2TI6SQJX1vdAJhpz-73" style="edgeStyle=orthogonalEdgeStyle;rounded=0;orthogonalLoop=1;jettySize=auto;html=1;entryX=0;entryY=0.5;entryDx=0;entryDy=0;" edge="1" parent="1" source="QDF-2TI6SQJX1vdAJhpz-2" target="QDF-2TI6SQJX1vdAJhpz-5">
          <mxGeometry relative="1" as="geometry" />
        </mxCell>
        <mxCell id="QDF-2TI6SQJX1vdAJhpz-2" value="顾客" style="shape=umlActor;verticalLabelPosition=bottom;verticalAlign=top;html=1;outlineConnect=0;" vertex="1" parent="1">
          <mxGeometry x="50" y="120" width="30" height="60" as="geometry" />
        </mxCell>
        <mxCell id="QDF-2TI6SQJX1vdAJhpz-12" style="edgeStyle=orthogonalEdgeStyle;rounded=0;orthogonalLoop=1;jettySize=auto;html=1;entryX=0;entryY=0.5;entryDx=0;entryDy=0;" edge="1" parent="1" source="QDF-2TI6SQJX1vdAJhpz-3" target="QDF-2TI6SQJX1vdAJhpz-7">
          <mxGeometry relative="1" as="geometry" />
        </mxCell>
        <mxCell id="QDF-2TI6SQJX1vdAJhpz-3" value="从其他渠道&lt;br&gt;跳转DIY小程序" style="rounded=0;whiteSpace=wrap;html=1;" vertex="1" parent="1">
          <mxGeometry x="150" width="90" height="40" as="geometry" />
        </mxCell>
        <mxCell id="QDF-2TI6SQJX1vdAJhpz-17" style="edgeStyle=orthogonalEdgeStyle;rounded=0;orthogonalLoop=1;jettySize=auto;html=1;entryX=0;entryY=0.5;entryDx=0;entryDy=0;" edge="1" parent="1" source="QDF-2TI6SQJX1vdAJhpz-4" target="QDF-2TI6SQJX1vdAJhpz-14">
          <mxGeometry relative="1" as="geometry" />
        </mxCell>
        <mxCell id="QDF-2TI6SQJX1vdAJhpz-71" style="edgeStyle=orthogonalEdgeStyle;rounded=0;orthogonalLoop=1;jettySize=auto;html=1;entryX=0;entryY=0.5;entryDx=0;entryDy=0;" edge="1" parent="1" source="QDF-2TI6SQJX1vdAJhpz-4" target="QDF-2TI6SQJX1vdAJhpz-37">
          <mxGeometry relative="1" as="geometry">
            <Array as="points">
              <mxPoint x="325" y="450" />
            </Array>
          </mxGeometry>
        </mxCell>
        <mxCell id="QDF-2TI6SQJX1vdAJhpz-4" value="记录导购与顾客的关联信息" style="rounded=0;whiteSpace=wrap;html=1;" vertex="1" parent="1">
          <mxGeometry x="280" y="240" width="90" height="40" as="geometry" />
        </mxCell>
        <mxCell id="QDF-2TI6SQJX1vdAJhpz-13" style="edgeStyle=orthogonalEdgeStyle;rounded=0;orthogonalLoop=1;jettySize=auto;html=1;entryX=0;entryY=0.5;entryDx=0;entryDy=0;" edge="1" parent="1" source="QDF-2TI6SQJX1vdAJhpz-5" target="QDF-2TI6SQJX1vdAJhpz-4">
          <mxGeometry relative="1" as="geometry" />
        </mxCell>
        <mxCell id="QDF-2TI6SQJX1vdAJhpz-5" value="导购二维码&lt;br&gt;打开小程序" style="rounded=0;whiteSpace=wrap;html=1;" vertex="1" parent="1">
          <mxGeometry x="160" y="240" width="90" height="40" as="geometry" />
        </mxCell>
        <mxCell id="QDF-2TI6SQJX1vdAJhpz-15" style="edgeStyle=orthogonalEdgeStyle;rounded=0;orthogonalLoop=1;jettySize=auto;html=1;entryX=0;entryY=0.5;entryDx=0;entryDy=0;" edge="1" parent="1" source="QDF-2TI6SQJX1vdAJhpz-7" target="QDF-2TI6SQJX1vdAJhpz-14">
          <mxGeometry relative="1" as="geometry" />
        </mxCell>
        <mxCell id="QDF-2TI6SQJX1vdAJhpz-7" value="记录跳转来源信息" style="rounded=0;whiteSpace=wrap;html=1;" vertex="1" parent="1">
          <mxGeometry x="280" width="90" height="40" as="geometry" />
        </mxCell>
        <mxCell id="QDF-2TI6SQJX1vdAJhpz-24" style="edgeStyle=orthogonalEdgeStyle;rounded=0;orthogonalLoop=1;jettySize=auto;html=1;entryX=0.5;entryY=0;entryDx=0;entryDy=0;" edge="1" parent="1" source="QDF-2TI6SQJX1vdAJhpz-14" target="QDF-2TI6SQJX1vdAJhpz-18">
          <mxGeometry relative="1" as="geometry" />
        </mxCell>
        <mxCell id="QDF-2TI6SQJX1vdAJhpz-52" style="edgeStyle=orthogonalEdgeStyle;rounded=0;orthogonalLoop=1;jettySize=auto;html=1;entryX=0;entryY=0.5;entryDx=0;entryDy=0;" edge="1" parent="1" source="QDF-2TI6SQJX1vdAJhpz-14" target="QDF-2TI6SQJX1vdAJhpz-43">
          <mxGeometry relative="1" as="geometry" />
        </mxCell>
        <mxCell id="QDF-2TI6SQJX1vdAJhpz-14" value="创建设计" style="rounded=0;whiteSpace=wrap;html=1;" vertex="1" parent="1">
          <mxGeometry x="430" y="130" width="90" height="40" as="geometry" />
        </mxCell>
        <mxCell id="QDF-2TI6SQJX1vdAJhpz-25" style="edgeStyle=orthogonalEdgeStyle;rounded=0;orthogonalLoop=1;jettySize=auto;html=1;" edge="1" parent="1" source="QDF-2TI6SQJX1vdAJhpz-18" target="QDF-2TI6SQJX1vdAJhpz-19">
          <mxGeometry relative="1" as="geometry" />
        </mxCell>
        <mxCell id="QDF-2TI6SQJX1vdAJhpz-53" style="edgeStyle=orthogonalEdgeStyle;rounded=0;orthogonalLoop=1;jettySize=auto;html=1;entryX=0;entryY=0.5;entryDx=0;entryDy=0;" edge="1" parent="1" source="QDF-2TI6SQJX1vdAJhpz-18" target="QDF-2TI6SQJX1vdAJhpz-43">
          <mxGeometry relative="1" as="geometry" />
        </mxCell>
        <mxCell id="QDF-2TI6SQJX1vdAJhpz-18" value="校验库存" style="rounded=0;whiteSpace=wrap;html=1;" vertex="1" parent="1">
          <mxGeometry x="430" y="190" width="90" height="40" as="geometry" />
        </mxCell>
        <mxCell id="QDF-2TI6SQJX1vdAJhpz-33" style="edgeStyle=orthogonalEdgeStyle;rounded=0;orthogonalLoop=1;jettySize=auto;html=1;entryX=0.5;entryY=0;entryDx=0;entryDy=0;" edge="1" parent="1" source="QDF-2TI6SQJX1vdAJhpz-19" target="QDF-2TI6SQJX1vdAJhpz-27">
          <mxGeometry relative="1" as="geometry" />
        </mxCell>
        <mxCell id="QDF-2TI6SQJX1vdAJhpz-54" style="edgeStyle=orthogonalEdgeStyle;rounded=0;orthogonalLoop=1;jettySize=auto;html=1;entryX=0;entryY=0.5;entryDx=0;entryDy=0;" edge="1" parent="1" source="QDF-2TI6SQJX1vdAJhpz-19" target="QDF-2TI6SQJX1vdAJhpz-43">
          <mxGeometry relative="1" as="geometry" />
        </mxCell>
        <mxCell id="QDF-2TI6SQJX1vdAJhpz-19" value="计算工期" style="rounded=0;whiteSpace=wrap;html=1;" vertex="1" parent="1">
          <mxGeometry x="430" y="250" width="90" height="40" as="geometry" />
        </mxCell>
        <mxCell id="QDF-2TI6SQJX1vdAJhpz-35" style="edgeStyle=orthogonalEdgeStyle;rounded=0;orthogonalLoop=1;jettySize=auto;html=1;" edge="1" parent="1" source="QDF-2TI6SQJX1vdAJhpz-22" target="QDF-2TI6SQJX1vdAJhpz-29">
          <mxGeometry relative="1" as="geometry" />
        </mxCell>
        <mxCell id="QDF-2TI6SQJX1vdAJhpz-22" value="提交订单" style="rounded=0;whiteSpace=wrap;html=1;" vertex="1" parent="1">
          <mxGeometry x="550" y="310" width="90" height="40" as="geometry" />
        </mxCell>
        <mxCell id="QDF-2TI6SQJX1vdAJhpz-34" style="edgeStyle=orthogonalEdgeStyle;rounded=0;orthogonalLoop=1;jettySize=auto;html=1;entryX=0;entryY=0.5;entryDx=0;entryDy=0;" edge="1" parent="1" source="QDF-2TI6SQJX1vdAJhpz-27" target="QDF-2TI6SQJX1vdAJhpz-22">
          <mxGeometry relative="1" as="geometry" />
        </mxCell>
        <mxCell id="QDF-2TI6SQJX1vdAJhpz-27" value="计算折扣" style="rounded=0;whiteSpace=wrap;html=1;" vertex="1" parent="1">
          <mxGeometry x="430" y="310" width="90" height="40" as="geometry" />
        </mxCell>
        <mxCell id="QDF-2TI6SQJX1vdAJhpz-38" style="edgeStyle=orthogonalEdgeStyle;rounded=0;orthogonalLoop=1;jettySize=auto;html=1;" edge="1" parent="1" source="QDF-2TI6SQJX1vdAJhpz-29" target="QDF-2TI6SQJX1vdAJhpz-37">
          <mxGeometry relative="1" as="geometry" />
        </mxCell>
        <mxCell id="QDF-2TI6SQJX1vdAJhpz-45" style="edgeStyle=orthogonalEdgeStyle;rounded=0;orthogonalLoop=1;jettySize=auto;html=1;" edge="1" parent="1" source="QDF-2TI6SQJX1vdAJhpz-29" target="QDF-2TI6SQJX1vdAJhpz-43">
          <mxGeometry relative="1" as="geometry" />
        </mxCell>
        <mxCell id="QDF-2TI6SQJX1vdAJhpz-29" value="pre-confirm design" style="rounded=0;whiteSpace=wrap;html=1;" vertex="1" parent="1">
          <mxGeometry x="550" y="370" width="90" height="40" as="geometry" />
        </mxCell>
        <mxCell id="QDF-2TI6SQJX1vdAJhpz-40" style="edgeStyle=orthogonalEdgeStyle;rounded=0;orthogonalLoop=1;jettySize=auto;html=1;" edge="1" parent="1" source="QDF-2TI6SQJX1vdAJhpz-37" target="QDF-2TI6SQJX1vdAJhpz-39">
          <mxGeometry relative="1" as="geometry" />
        </mxCell>
        <mxCell id="QDF-2TI6SQJX1vdAJhpz-51" style="edgeStyle=orthogonalEdgeStyle;rounded=0;orthogonalLoop=1;jettySize=auto;html=1;entryX=0.5;entryY=1;entryDx=0;entryDy=0;" edge="1" parent="1" source="QDF-2TI6SQJX1vdAJhpz-37" target="QDF-2TI6SQJX1vdAJhpz-43">
          <mxGeometry relative="1" as="geometry" />
        </mxCell>
        <mxCell id="QDF-2TI6SQJX1vdAJhpz-37" value="创建CT" style="rounded=0;whiteSpace=wrap;html=1;" vertex="1" parent="1">
          <mxGeometry x="550" y="430" width="90" height="40" as="geometry" />
        </mxCell>
        <mxCell id="QDF-2TI6SQJX1vdAJhpz-50" style="edgeStyle=orthogonalEdgeStyle;rounded=0;orthogonalLoop=1;jettySize=auto;html=1;entryX=0.5;entryY=1;entryDx=0;entryDy=0;" edge="1" parent="1" source="QDF-2TI6SQJX1vdAJhpz-39" target="QDF-2TI6SQJX1vdAJhpz-43">
          <mxGeometry relative="1" as="geometry" />
        </mxCell>
        <mxCell id="QDF-2TI6SQJX1vdAJhpz-63" style="edgeStyle=orthogonalEdgeStyle;rounded=0;orthogonalLoop=1;jettySize=auto;html=1;entryX=0.5;entryY=0;entryDx=0;entryDy=0;" edge="1" parent="1" source="QDF-2TI6SQJX1vdAJhpz-39" target="QDF-2TI6SQJX1vdAJhpz-41">
          <mxGeometry relative="1" as="geometry" />
        </mxCell>
        <mxCell id="QDF-2TI6SQJX1vdAJhpz-39" value="支付" style="rounded=0;whiteSpace=wrap;html=1;" vertex="1" parent="1">
          <mxGeometry x="550" y="490" width="90" height="40" as="geometry" />
        </mxCell>
        <mxCell id="QDF-2TI6SQJX1vdAJhpz-64" style="edgeStyle=orthogonalEdgeStyle;rounded=0;orthogonalLoop=1;jettySize=auto;html=1;entryX=0.5;entryY=1;entryDx=0;entryDy=0;" edge="1" parent="1" source="QDF-2TI6SQJX1vdAJhpz-41" target="QDF-2TI6SQJX1vdAJhpz-43">
          <mxGeometry relative="1" as="geometry" />
        </mxCell>
        <mxCell id="QDF-2TI6SQJX1vdAJhpz-68" style="edgeStyle=orthogonalEdgeStyle;rounded=0;orthogonalLoop=1;jettySize=auto;html=1;entryX=0.5;entryY=0;entryDx=0;entryDy=0;" edge="1" parent="1" source="QDF-2TI6SQJX1vdAJhpz-41" target="QDF-2TI6SQJX1vdAJhpz-65">
          <mxGeometry relative="1" as="geometry" />
        </mxCell>
        <mxCell id="QDF-2TI6SQJX1vdAJhpz-41" value="confirm design" style="rounded=0;whiteSpace=wrap;html=1;" vertex="1" parent="1">
          <mxGeometry x="550" y="560" width="90" height="40" as="geometry" />
        </mxCell>
        <mxCell id="QDF-2TI6SQJX1vdAJhpz-42" value="" style="ellipse;html=1;shape=endState;fillColor=#000000;strokeColor=#ff0000;" vertex="1" parent="1">
          <mxGeometry x="800" y="110" width="30" height="30" as="geometry" />
        </mxCell>
        <mxCell id="QDF-2TI6SQJX1vdAJhpz-62" style="edgeStyle=orthogonalEdgeStyle;rounded=0;orthogonalLoop=1;jettySize=auto;html=1;entryX=0.5;entryY=1;entryDx=0;entryDy=0;" edge="1" parent="1" source="QDF-2TI6SQJX1vdAJhpz-43" target="QDF-2TI6SQJX1vdAJhpz-42">
          <mxGeometry relative="1" as="geometry" />
        </mxCell>
        <mxCell id="QDF-2TI6SQJX1vdAJhpz-43" value="failed?" style="rhombus;whiteSpace=wrap;html=1;" vertex="1" parent="1">
          <mxGeometry x="770" y="200" width="90" height="20" as="geometry" />
        </mxCell>
        <mxCell id="QDF-2TI6SQJX1vdAJhpz-61" value="创建CT时传入导购信息" style="text;html=1;align=center;verticalAlign=middle;resizable=0;points=[];autosize=1;strokeColor=none;" vertex="1" parent="1">
          <mxGeometry x="404" y="430" width="140" height="20" as="geometry" />
        </mxCell>
        <mxCell id="QDF-2TI6SQJX1vdAJhpz-67" style="edgeStyle=orthogonalEdgeStyle;rounded=0;orthogonalLoop=1;jettySize=auto;html=1;entryX=0.5;entryY=0;entryDx=0;entryDy=0;" edge="1" parent="1" source="QDF-2TI6SQJX1vdAJhpz-65" target="QDF-2TI6SQJX1vdAJhpz-66">
          <mxGeometry relative="1" as="geometry" />
        </mxCell>
        <mxCell id="QDF-2TI6SQJX1vdAJhpz-65" value="更新CT状态" style="rounded=0;whiteSpace=wrap;html=1;" vertex="1" parent="1">
          <mxGeometry x="550" y="620" width="90" height="40" as="geometry" />
        </mxCell>
        <mxCell id="QDF-2TI6SQJX1vdAJhpz-70" style="edgeStyle=orthogonalEdgeStyle;rounded=0;orthogonalLoop=1;jettySize=auto;html=1;entryX=1;entryY=0.5;entryDx=0;entryDy=0;" edge="1" parent="1" source="QDF-2TI6SQJX1vdAJhpz-66" target="QDF-2TI6SQJX1vdAJhpz-42">
          <mxGeometry relative="1" as="geometry">
            <Array as="points">
              <mxPoint x="920" y="710" />
              <mxPoint x="920" y="125" />
            </Array>
          </mxGeometry>
        </mxCell>
        <mxCell id="QDF-2TI6SQJX1vdAJhpz-66" value="同步订单信息&lt;br&gt;到OMS" style="rounded=0;whiteSpace=wrap;html=1;" vertex="1" parent="1">
          <mxGeometry x="550" y="690" width="90" height="40" as="geometry" />
        </mxCell>
        <mxCell id="QDF-2TI6SQJX1vdAJhpz-72" value="end" style="text;html=1;align=center;verticalAlign=middle;resizable=0;points=[];autosize=1;strokeColor=none;" vertex="1" parent="1">
          <mxGeometry x="795" y="80" width="40" height="20" as="geometry" />
        </mxCell>
      </root>
    </mxGraphModel>
  </diagram>
</mxfile>
